<svg width="319" height="40" viewBox="0 0 319 40" fill="none" xmlns="http://www.w3.org/2000/svg">
<circle cx="16.3467" cy="20" r="14.7121" stroke="white" stroke-width="3.26935"/>
<circle cx="32.6936" cy="20" r="14.7121" stroke="white" stroke-width="3.26935"/>
<path d="M63.4713 32V8.2142H72.2832C73.986 8.2142 75.4547 8.51751 76.6892 9.12413C77.9237 9.72011 78.8762 10.5715 79.5467 11.6783C80.2278 12.7851 80.5684 14.0995 80.5684 15.6213C80.5684 17.1432 80.2225 18.4575 79.5307 19.5643C78.839 20.6711 77.8652 21.5279 76.6094 22.1345C75.3536 22.7411 73.8743 23.0444 72.1715 23.0444H65.3391V19.9794H72.1076C73.1399 19.9794 74.0233 19.8038 74.7576 19.4526C75.4919 19.0908 76.0613 18.5852 76.4657 17.936C76.8701 17.2869 77.0723 16.5153 77.0723 15.6213C77.0723 14.7274 76.8701 13.9611 76.4657 13.3226C76.0613 12.6734 75.4919 12.1732 74.7576 11.822C74.0233 11.4708 73.1399 11.2952 72.1076 11.2952H67.0152V32H63.4713ZM89.1613 32.3831C87.4904 32.3831 86.0537 32.0053 84.8511 31.2497C83.6591 30.4941 82.7386 29.4565 82.0894 28.1368C81.4508 26.8065 81.1315 25.2953 81.1315 23.6031C81.1315 21.8791 81.4668 20.3572 82.1373 19.0375C82.8077 17.7072 83.7336 16.6643 84.9149 15.9087C86.0962 15.1424 87.4531 14.7593 88.9857 14.7593C90.1776 14.7593 91.2525 14.9721 92.2103 15.3978C93.1788 15.8235 94.0089 16.4301 94.7006 17.2177C95.3924 17.9946 95.9245 18.9205 96.297 19.9954C96.6695 21.0702 96.8557 22.2622 96.8557 23.5712V24.4811H82.6481V21.927H95.0838L93.5991 22.7092C93.5991 21.6662 93.4129 20.7616 93.0404 19.9954C92.6679 19.2185 92.1358 18.6225 91.444 18.2074C90.7629 17.7817 89.9541 17.5689 89.0176 17.5689C88.0917 17.5689 87.2882 17.7817 86.6071 18.2074C85.926 18.6225 85.3938 19.2185 85.0107 19.9954C84.6382 20.7616 84.452 21.6662 84.452 22.7092V24.1619C84.452 25.2261 84.6382 26.168 85.0107 26.9874C85.3832 27.7962 85.9206 28.4295 86.623 28.8871C87.3361 29.3447 88.1981 29.5735 89.2091 29.5735C89.9435 29.5735 90.5927 29.4618 91.1567 29.2383C91.7208 29.0042 92.189 28.6849 92.5615 28.2805C92.934 27.8761 93.2 27.4078 93.3597 26.8757H96.6003C96.3981 27.9612 95.9458 28.919 95.2434 29.7491C94.5516 30.5686 93.679 31.2125 92.6254 31.6807C91.5824 32.149 90.4277 32.3831 89.1613 32.3831ZM99.2867 32V15.1424H102.511V17.8722H102.575C102.884 16.9463 103.368 16.2279 104.028 15.7171C104.698 15.1956 105.571 14.9349 106.646 14.9349C106.901 14.9349 107.135 14.9455 107.348 14.9668C107.572 14.9775 107.747 14.9934 107.875 15.0147V18.1595C107.747 18.1276 107.519 18.0957 107.189 18.0638C106.859 18.0212 106.497 17.9999 106.103 17.9999C105.475 17.9999 104.895 18.1436 104.363 18.4309C103.842 18.7183 103.427 19.1599 103.118 19.7559C102.809 20.3519 102.655 21.1128 102.655 22.0387V32H99.2867ZM116.149 32.3991C114.861 32.3991 113.701 32.1916 112.669 31.7765C111.636 31.3615 110.806 30.7442 110.178 29.9247C109.55 29.1053 109.194 28.0889 109.109 26.8757H112.429C112.525 27.7803 112.881 28.4827 113.499 28.9829C114.127 29.4724 114.989 29.7172 116.085 29.7172C117.16 29.7172 118.006 29.499 118.623 29.0627C119.24 28.6264 119.549 28.0729 119.549 27.4025C119.549 26.8278 119.325 26.3702 118.878 26.0296C118.442 25.6784 117.857 25.423 117.122 25.2634L114.329 24.6408C112.743 24.2896 111.541 23.7096 110.721 22.9007C109.902 22.0919 109.492 21.0649 109.492 19.8198C109.492 18.8194 109.758 17.9414 110.29 17.1858C110.833 16.4301 111.588 15.8395 112.557 15.4138C113.525 14.9881 114.653 14.7753 115.941 14.7753C117.208 14.7753 118.33 14.9987 119.31 15.4457C120.299 15.8927 121.076 16.5259 121.64 17.3454C122.215 18.1649 122.518 19.144 122.55 20.2827H119.325C119.315 19.4632 119.006 18.7874 118.4 18.2553C117.793 17.7126 116.989 17.4412 115.989 17.4412C115.031 17.4412 114.27 17.6647 113.706 18.1116C113.142 18.5586 112.86 19.1067 112.86 19.7559C112.86 20.3306 113.073 20.7935 113.499 21.1447C113.935 21.4959 114.531 21.7567 115.287 21.927L118.16 22.5655C119.81 22.9273 121.018 23.4861 121.784 24.2417C122.561 24.9973 122.949 25.987 122.949 27.2109C122.949 28.2858 122.651 29.2117 122.055 29.9886C121.47 30.7548 120.666 31.3508 119.645 31.7765C118.623 32.1916 117.458 32.3991 116.149 32.3991ZM132.691 32.3831C131.084 32.3831 129.674 32.0106 128.461 31.2657C127.248 30.5207 126.301 29.4884 125.62 28.1687C124.949 26.8491 124.614 25.3272 124.614 23.6031C124.614 21.8578 124.949 20.3253 125.62 19.0056C126.301 17.6753 127.248 16.6377 128.461 15.8927C129.674 15.1371 131.084 14.7593 132.691 14.7593C134.298 14.7593 135.703 15.1371 136.906 15.8927C138.119 16.6377 139.061 17.6753 139.731 19.0056C140.413 20.3253 140.753 21.8578 140.753 23.6031C140.753 25.3272 140.413 26.8491 139.731 28.1687C139.061 29.4884 138.119 30.5207 136.906 31.2657C135.703 32.0106 134.298 32.3831 132.691 32.3831ZM132.691 29.4777C133.649 29.4777 134.474 29.2383 135.166 28.7594C135.868 28.2698 136.406 27.5834 136.778 26.7001C137.161 25.8168 137.353 24.7844 137.353 23.6031C137.353 22.3899 137.161 21.3416 136.778 20.4583C136.406 19.575 135.868 18.8885 135.166 18.399C134.474 17.9094 133.649 17.6647 132.691 17.6647C131.734 17.6647 130.904 17.9094 130.201 18.399C129.509 18.8779 128.972 19.5643 128.589 20.4583C128.216 21.3416 128.03 22.3899 128.03 23.6031C128.03 24.7951 128.216 25.8327 128.589 26.716C128.972 27.5887 129.509 28.2698 130.201 28.7594C130.893 29.2383 131.723 29.4777 132.691 29.4777ZM146.616 22.2941V32H143.248V15.1424H146.552V19.3249H145.77C146.324 17.8137 147.09 16.6856 148.069 15.9406C149.059 15.185 150.251 14.8072 151.645 14.8072C152.805 14.8072 153.842 15.0626 154.758 15.5734C155.684 16.0736 156.413 16.8186 156.945 17.8083C157.477 18.7981 157.743 20.0273 157.743 21.4959V32H154.375V21.911C154.375 20.5594 154.05 19.5431 153.401 18.8619C152.762 18.1702 151.858 17.8243 150.687 17.8243C149.921 17.8243 149.229 17.9786 148.612 18.2872C148.005 18.5959 147.521 19.0801 147.159 19.7399C146.797 20.3998 146.616 21.2512 146.616 22.2941ZM166.192 32.2714C165.075 32.2714 164.074 32.0798 163.191 31.6967C162.318 31.3136 161.627 30.7442 161.116 29.9886C160.605 29.233 160.349 28.2964 160.349 27.179C160.349 26.2212 160.53 25.4336 160.892 24.8164C161.265 24.1991 161.765 23.7096 162.393 23.3477C163.021 22.9859 163.734 22.7145 164.532 22.5336C165.33 22.342 166.155 22.1983 167.006 22.1026C168.07 21.9642 168.906 21.8578 169.513 21.7833C170.13 21.6981 170.566 21.5704 170.822 21.4002C171.088 21.2192 171.221 20.9266 171.221 20.5222V20.3785C171.221 19.8357 171.088 19.3568 170.822 18.9418C170.555 18.5161 170.167 18.1808 169.656 17.936C169.145 17.6913 168.533 17.5689 167.82 17.5689C167.107 17.5689 166.474 17.686 165.921 17.9201C165.378 18.1542 164.942 18.4788 164.612 18.8939C164.292 19.2983 164.112 19.7612 164.069 20.2827H160.764C160.818 19.2078 161.142 18.2606 161.738 17.4412C162.334 16.6217 163.154 15.9778 164.197 15.5096C165.24 15.0413 166.463 14.8072 167.868 14.8072C168.901 14.8072 169.832 14.9402 170.662 15.2063C171.492 15.4723 172.194 15.8555 172.769 16.3557C173.354 16.8452 173.796 17.4359 174.094 18.1276C174.403 18.8194 174.557 19.5909 174.557 20.4423V32H171.237V29.6055H171.173C170.939 30.0631 170.619 30.4941 170.215 30.8985C169.811 31.3029 169.278 31.6328 168.619 31.8883C167.969 32.1437 167.161 32.2714 166.192 32.2714ZM166.879 29.5576C167.868 29.5576 168.682 29.382 169.321 29.0308C169.97 28.6689 170.449 28.1953 170.758 27.61C171.077 27.0247 171.237 26.3861 171.237 25.6944V23.7149C171.12 23.8107 170.928 23.9011 170.662 23.9863C170.407 24.0608 170.093 24.1353 169.72 24.2098C169.348 24.2736 168.943 24.3428 168.507 24.4173C168.07 24.4918 167.634 24.5556 167.198 24.6088C166.581 24.694 166.006 24.8377 165.474 25.0399C164.942 25.2314 164.511 25.5028 164.181 25.854C163.861 26.2052 163.702 26.6682 163.702 27.2428C163.702 27.7217 163.829 28.1368 164.085 28.488C164.34 28.8286 164.707 29.0946 165.186 29.2862C165.665 29.4671 166.229 29.5576 166.879 29.5576ZM181.234 8.2142V32H177.866V8.2142H181.234ZM183.426 11.3271V8.2142H202.119V11.3271H194.568V32H191.009V11.3271H183.426ZM207.663 32.3831C206.056 32.3831 204.646 32.0106 203.433 31.2657C202.219 30.5207 201.272 29.4884 200.591 28.1687C199.921 26.8491 199.585 25.3272 199.585 23.6031C199.585 21.8578 199.921 20.3253 200.591 19.0056C201.272 17.6753 202.219 16.6377 203.433 15.8927C204.646 15.1371 206.056 14.7593 207.663 14.7593C209.27 14.7593 210.675 15.1371 211.877 15.8927C213.091 16.6377 214.033 17.6753 214.703 19.0056C215.384 20.3253 215.725 21.8578 215.725 23.6031C215.725 25.3272 215.384 26.8491 214.703 28.1687C214.033 29.4884 213.091 30.5207 211.877 31.2657C210.675 32.0106 209.27 32.3831 207.663 32.3831ZM207.663 29.4777C208.621 29.4777 209.446 29.2383 210.137 28.7594C210.84 28.2698 211.377 27.5834 211.75 26.7001C212.133 25.8168 212.324 24.7844 212.324 23.6031C212.324 22.3899 212.133 21.3416 211.75 20.4583C211.377 19.575 210.84 18.8885 210.137 18.399C209.446 17.9094 208.621 17.6647 207.663 17.6647C206.705 17.6647 205.875 17.9094 205.173 18.399C204.481 18.8779 203.944 19.5643 203.56 20.4583C203.188 21.3416 203.002 22.3899 203.002 23.6031C203.002 24.7951 203.188 25.8327 203.56 26.716C203.944 27.5887 204.481 28.2698 205.173 28.7594C205.864 29.2383 206.695 29.4777 207.663 29.4777ZM221.332 26.3329V22.342H221.636L228.819 15.1424H233.002L224.988 23.2839H224.461L221.332 26.3329ZM218.219 32V8.2142H221.588V32H218.219ZM229.346 32L222.993 24.0342L225.307 21.6875L233.481 32H229.346ZM241.243 32.3831C239.573 32.3831 238.136 32.0053 236.933 31.2497C235.741 30.4941 234.821 29.4565 234.172 28.1368C233.533 26.8065 233.214 25.2953 233.214 23.6031C233.214 21.8791 233.549 20.3572 234.219 19.0375C234.89 17.7072 235.816 16.6643 236.997 15.9087C238.178 15.1424 239.535 14.7593 241.068 14.7593C242.26 14.7593 243.335 14.9721 244.293 15.3978C245.261 15.8235 246.091 16.4301 246.783 17.2177C247.475 17.9946 248.007 18.9205 248.379 19.9954C248.752 21.0702 248.938 22.2622 248.938 23.5712V24.4811H234.73V21.927H247.166L245.681 22.7092C245.681 21.6662 245.495 20.7616 245.123 19.9954C244.75 19.2185 244.218 18.6225 243.526 18.2074C242.845 17.7817 242.036 17.5689 241.1 17.5689C240.174 17.5689 239.37 17.7817 238.689 18.2074C238.008 18.6225 237.476 19.2185 237.093 19.9954C236.72 20.7616 236.534 21.6662 236.534 22.7092V24.1619C236.534 25.2261 236.72 26.168 237.093 26.9874C237.465 27.7962 238.003 28.4295 238.705 28.8871C239.418 29.3447 240.28 29.5735 241.291 29.5735C242.026 29.5735 242.675 29.4618 243.239 29.2383C243.803 29.0042 244.271 28.6849 244.644 28.2805C245.016 27.8761 245.282 27.4078 245.442 26.8757H248.683C248.48 27.9612 248.028 28.919 247.326 29.7491C246.634 30.5686 245.761 31.2125 244.708 31.6807C243.665 32.149 242.51 32.3831 241.243 32.3831ZM254.737 22.2941V32H251.369V15.1424H254.673V19.3249H253.891C254.445 17.8137 255.211 16.6856 256.19 15.9406C257.18 15.185 258.372 14.8072 259.766 14.8072C260.926 14.8072 261.963 15.0626 262.879 15.5734C263.805 16.0736 264.534 16.8186 265.066 17.8083C265.598 18.7981 265.864 20.0273 265.864 21.4959V32H262.496V21.911C262.496 20.5594 262.171 19.5431 261.522 18.8619C260.883 18.1702 259.979 17.8243 258.808 17.8243C258.042 17.8243 257.35 17.9786 256.733 18.2872C256.126 18.5959 255.642 19.0801 255.28 19.7399C254.918 20.3998 254.737 21.2512 254.737 22.2941ZM269.444 32V8.2142H273.371L282.455 22.5974C282.667 22.938 282.944 23.3956 283.285 23.9703C283.625 24.5343 283.987 25.1516 284.37 25.8221C284.753 26.4819 285.115 27.1258 285.456 27.7537L285.089 28.5678C285.067 27.9506 285.041 27.2322 285.009 26.4127C284.977 25.5933 284.955 24.811 284.945 24.0661C284.934 23.3211 284.929 22.7571 284.929 22.3739V8.2142H288.489V32H284.53L276.404 19.1493C276.16 18.7555 275.83 18.2181 275.415 17.537C275 16.8558 274.526 16.063 273.994 15.1584C273.462 14.2538 272.892 13.2747 272.286 12.2211L272.797 11.5346C272.85 12.7479 272.887 13.8494 272.908 14.8391C272.94 15.8289 272.961 16.6856 272.972 17.4093C272.983 18.1329 272.988 18.7076 272.988 19.1333V32H269.444ZM299.253 32.3831C297.582 32.3831 296.145 32.0053 294.943 31.2497C293.751 30.4941 292.83 29.4565 292.181 28.1368C291.542 26.8065 291.223 25.2953 291.223 23.6031C291.223 21.8791 291.558 20.3572 292.229 19.0375C292.899 17.7072 293.825 16.6643 295.006 15.9087C296.188 15.1424 297.545 14.7593 299.077 14.7593C300.269 14.7593 301.344 14.9721 302.302 15.3978C303.27 15.8235 304.1 16.4301 304.792 17.2177C305.484 17.9946 306.016 18.9205 306.388 19.9954C306.761 21.0702 306.947 22.2622 306.947 23.5712V24.4811H292.74V21.927H305.175L303.691 22.7092C303.691 21.6662 303.504 20.7616 303.132 19.9954C302.759 19.2185 302.227 18.6225 301.536 18.2074C300.854 17.7817 300.046 17.5689 299.109 17.5689C298.183 17.5689 297.38 17.7817 296.699 18.2074C296.017 18.6225 295.485 19.2185 295.102 19.9954C294.73 20.7616 294.543 21.6662 294.543 22.7092V24.1619C294.543 25.2261 294.73 26.168 295.102 26.9874C295.475 27.7962 296.012 28.4295 296.715 28.8871C297.428 29.3447 298.29 29.5735 299.301 29.5735C300.035 29.5735 300.684 29.4618 301.248 29.2383C301.812 29.0042 302.28 28.6849 302.653 28.2805C303.025 27.8761 303.292 27.4078 303.451 26.8757H306.692C306.49 27.9612 306.037 28.919 305.335 29.7491C304.643 30.5686 303.77 31.2125 302.717 31.6807C301.674 32.149 300.519 32.3831 299.253 32.3831ZM317.504 15.1424V17.9201H307.734V15.1424H317.504ZM310.703 10.5449H314.071V27.5461C314.071 28.1634 314.199 28.5997 314.455 28.8552C314.721 29.0999 315.189 29.2223 315.859 29.2223C316.115 29.2223 316.397 29.2223 316.705 29.2223C317.014 29.2223 317.28 29.2223 317.504 29.2223V32C317.227 32 316.892 32 316.498 32C316.115 32 315.742 32 315.38 32C313.795 32 312.619 31.6701 311.852 31.0103C311.086 30.3398 310.703 29.3288 310.703 27.9772V10.5449Z" fill="white"/>
</svg>
